HIERARCHY
ROOT hip
{
	OFFSET 0.000000 0.000000 0.000000 
	CHANNELS 6 Xposition Yposition Zposition Xrotation Zrotation Yrotation
	JOINT abdomen
	{
		OFFSET 0.000000 3.402643 0.000000 
		CHANNELS 3 Xrotation Zrotation Yrotation
		JOINT chest
		{
			OFFSET 0.000000 8.438565 -0.680529 
			CHANNELS 3 Xrotation Zrotation Yrotation
			JOINT neck
			{
				OFFSET 0.000000 10.207942 -0.272212 
				CHANNELS 3 Xrotation Zrotation Yrotation
				JOINT head
				{
					OFFSET 0.000000 3.130431 0.000000 
					CHANNELS 3 Xrotation Zrotation Yrotation
					End Site
					{
						OFFSET 0.000000 3.130435 0.000000 
					}
				}
			}
			JOINT lCollar
			{
				OFFSET 3.470700 6.669187 -0.816635 
				CHANNELS 3 Yrotation Zrotation Xrotation
				JOINT lShldr
				{
					OFFSET 3.198488 0.000000 0.000000 
					CHANNELS 3 Zrotation Yrotation Xrotation
					JOINT lForeArm
					{
						OFFSET 10.139888 0.000000 0.000000 
						CHANNELS 3 Yrotation Zrotation Xrotation
						JOINT lHand
						{
							OFFSET 8.370511 0.000000 0.000000 
							CHANNELS 3 Zrotation Yrotation Xrotation
							End Site
							{
								OFFSET 4.083176 0.000000 0.000000 
							}
						}
					}
				}
			}
			JOINT rCollar
			{
				OFFSET -3.470700 6.669187 -0.816635 
				CHANNELS 3 Yrotation Zrotation Xrotation
				JOINT rShldr
				{
					OFFSET -3.198488 0.000000 0.000000 
					CHANNELS 3 Zrotation Yrotation Xrotation
					JOINT rForeArm
					{
						OFFSET -10.139888 0.000000 0.000000 
						CHANNELS 3 Yrotation Zrotation Xrotation
						JOINT rHand
						{
							OFFSET -8.370511 0.000000 0.000000 
							CHANNELS 3 Zrotation Yrotation Xrotation
							End Site
							{
								OFFSET -4.083176 0.000000 0.000000 
							}
						}
					}
				}
			}
		}
	}
	JOINT lThigh
	{
		OFFSET 5.308129 -1.633274 1.361059 
		CHANNELS 3 Xrotation Zrotation Yrotation
		JOINT lShin
		{
			OFFSET -2.041588 -20.007561 0.000000 
			CHANNELS 3 Xrotation Zrotation Yrotation
			JOINT lFoot
			{
				OFFSET 0.000000 -19.190928 -1.224953 
				CHANNELS 3 Xrotation Yrotation Zrotation
				End Site
				{
					OFFSET 0.000000 -2.449906 4.627600 
				}
			}
		}
	}
	JOINT rThigh
	{
		OFFSET -5.308129 -1.633274 1.361059 
		CHANNELS 3 Xrotation Zrotation Yrotation
		JOINT rShin
		{
			OFFSET 2.041588 -20.007561 0.000000 
			CHANNELS 3 Xrotation Zrotation Yrotation
			JOINT rFoot
			{
				OFFSET 0.000000 -19.190928 -1.224953 
				CHANNELS 3 Xrotation Yrotation Zrotation
				End Site
				{
					OFFSET 0.000000 -2.449906 4.627600 
				}
			}
		}
	}
}
MOTION
Frames: 13
Frame Time: 0.016667
-91.325249 45.398708 47.442726 0.939953 4.140070 -18.759701 -21.452999 -3.583400 -4.363220 13.164000 -0.116213 -2.582580 38.256401 -4.734810 -1.688840 23.245701 2.386270 0.449551 2.000000 -2.000000 0.000000 -76.662804 -36.114799 -159.731995 92.588501 -0.208234 0.156142 -179.919006 -179.897995 3.693550 -2.000000 2.000000 0.000000 65.698502 3.089110 -164.778000 -48.936001 0.304658 0.103085 -0.075903 0.060236 -158.972000 -6.928353 8.546283 -11.993466 76.390762 1.309112 3.994874 -10.513723 0.005742 0.652132 -31.775829 3.661075 7.362818 71.087128 -0.164392 -4.415642 -44.196449 7.910575 6.247406 
-93.294312 45.759270 48.287617 0.822688 4.355020 -16.772900 -21.482800 -3.819510 -4.437310 13.252000 -0.019373 -2.653770 38.209000 -4.355690 -1.969770 23.129900 2.471270 0.268348 2.000000 -2.000000 0.000000 -78.174797 -36.091900 -158.199005 92.998596 -0.207186 0.156091 -179.919998 -179.899994 4.396670 -2.000000 2.000000 0.000000 65.454903 2.104970 -165.727005 -50.166500 0.302424 0.104990 -0.076443 0.061551 -159.479996 -10.230047 7.139023 -10.392724 81.066544 0.779219 4.129399 -15.370477 -0.563636 -0.206329 -30.351223 3.373950 6.175906 69.673622 -0.291155 -4.356340 -44.865444 7.303921 5.748237 
-95.269775 46.083340 49.157227 0.705143 4.335610 -14.838700 -21.494301 -4.004620 -4.457950 13.339800 -0.029065 -2.691630 38.237099 -4.031010 -2.323870 23.041901 2.472770 0.059479 2.000000 -2.000000 0.000000 -79.480797 -35.600399 -156.751007 93.457603 -0.206015 0.156025 -179.910995 -179.891006 4.679900 -2.000000 2.000000 0.000000 65.474998 0.887075 -166.940994 -51.387199 0.300168 0.106832 -0.076813 0.062434 -159.822006 -12.888680 6.101542 -8.246462 84.020493 0.297746 4.249971 -19.382025 0.496700 -0.411476 -28.906149 3.346739 4.910734 68.300148 -0.417216 -4.317307 -45.526150 6.454695 5.003713 
-97.240639 46.362034 50.032795 0.528653 4.033030 -12.911400 -21.451799 -3.974560 -4.545400 13.437500 0.193807 -2.739050 38.325298 -3.763510 -2.667660 23.013201 2.510200 -0.143925 2.000000 -2.000000 0.000000 -81.001198 -34.826099 -155.462997 93.936096 -0.204794 0.155946 -179.921005 -179.891006 4.826380 -2.000000 2.000000 0.000000 65.290001 -0.438499 -168.037994 -52.734901 0.297632 0.108809 -0.077634 0.064343 -160.563995 -14.909569 5.581291 -5.853958 85.952942 -0.082994 4.321209 -23.296886 1.791839 -0.244379 -27.477274 3.571109 3.556736 66.810272 -0.518026 -4.281431 -45.898312 5.881096 4.455390 
-99.216782 46.603859 50.924870 0.195653 3.378890 -11.071900 -21.358999 -3.840490 -4.632640 13.495900 0.377971 -2.771420 38.444302 -3.489500 -3.014060 22.993999 2.529010 -0.343513 2.000000 -2.000000 0.000000 -82.501900 -33.788601 -154.362000 94.336502 -0.203773 0.155872 -179.921005 -179.901001 4.943550 -2.000000 2.000000 0.000000 65.407898 -1.841660 -169.360001 -53.994598 0.295220 0.110603 -0.078582 0.066466 -161.393997 -16.121668 5.479742 -3.566694 86.658005 -0.312718 4.388326 -26.547649 3.165412 0.269228 -25.919579 4.137547 2.221186 65.455940 -0.631442 -4.223701 -46.386806 5.252655 3.820521 
-101.229881 46.821201 51.843571 -0.185738 2.597640 -9.529890 -21.249599 -3.625620 -4.615900 13.603100 0.620403 -2.751440 38.584599 -3.173110 -3.361940 22.984501 2.547650 -0.542680 2.000000 -2.000000 0.000000 -83.660301 -32.380100 -153.306000 94.795502 -0.202603 0.155778 -179.910995 -179.889999 4.621300 -2.000000 2.000000 0.000000 65.691704 -3.284240 -170.524994 -55.059101 0.293151 0.112077 -0.079269 0.067956 -161.979996 -16.705505 5.885394 -1.272851 86.172997 -0.374824 4.436830 -28.586443 3.654951 0.473255 -24.432226 4.976264 1.208436 64.081940 -0.744208 -4.160911 -46.868435 4.770965 3.353940 
-103.255791 47.010056 52.783730 -0.713343 2.040860 -8.003900 -21.041800 -3.540190 -4.665950 13.885800 0.931154 -2.774900 38.704102 -2.810540 -3.651670 22.985001 2.575360 -0.699182 2.000000 -2.000000 0.000000 -84.428703 -30.884501 -152.634995 95.195900 -0.201584 0.155689 -179.919998 -179.899994 4.377140 -2.000000 2.000000 0.000000 66.307602 -4.521800 -171.660995 -55.889198 0.291519 0.113200 -0.079795 0.069068 -162.419998 -16.659098 5.985935 0.494005 84.459244 -0.302660 4.447976 -30.058304 3.713771 0.480882 -22.967232 5.438235 0.236806 62.865101 -0.835711 -4.103790 -47.240746 4.243809 2.777930 
-105.289001 47.197861 53.756920 -1.162530 1.542650 -6.535200 -20.932199 -3.577780 -4.738560 14.100400 1.106220 -2.820460 38.947601 -2.431570 -3.856530 23.082800 2.573630 -0.802217 2.000000 -2.000000 0.000000 -84.737999 -29.047600 -152.199005 95.576698 -0.200614 0.155598 -179.919998 -179.899002 4.064640 -2.000000 2.000000 0.000000 -112.872002 -174.151993 7.495860 -56.621601 0.290066 0.114171 -0.080067 0.069635 -162.643997 -16.242405 6.008942 1.849408 81.636292 -0.136454 4.424786 -31.579922 4.568683 1.025824 -21.785704 5.751737 -0.673414 61.806210 -0.917184 -4.079154 -47.301567 3.995983 2.451166 
-107.307831 47.369568 54.753578 -1.582460 1.337380 -5.036930 -20.855801 -3.863720 -4.778550 14.295800 1.048400 -2.878660 39.197601 -1.905300 -4.064380 23.181200 2.608800 -0.902211 2.000000 -2.000000 0.000000 -84.725403 -27.171900 -151.876007 95.869698 -0.199869 0.155523 -179.919006 -179.897995 3.664260 -2.000000 2.000000 0.000000 -111.719002 -172.679001 6.748940 -57.324699 0.288660 0.115085 -0.080197 0.069906 -162.751999 -15.506555 5.632634 2.975836 78.173927 0.127234 4.360835 -33.786545 6.611306 2.462541 -20.859997 5.600828 -1.526999 60.981487 -0.981591 -4.033562 -47.230270 3.666387 1.973954 
-109.314522 47.525032 55.771477 -1.904760 1.268830 -3.382030 -20.756800 -4.178600 -4.923950 14.618200 1.039320 -2.988940 39.390999 -1.385780 -4.237230 23.241199 2.681510 -1.000800 2.000000 -2.000000 0.000000 -84.615700 -25.335600 -151.694000 96.006401 -0.199521 0.155487 -179.917999 -179.897003 3.136910 -2.000000 2.000000 0.000000 -110.556000 -171.128006 6.100480 -58.135300 0.287024 0.116118 -0.080257 0.070029 -162.800995 -14.585787 5.044939 3.676296 74.035614 0.451298 4.283322 -36.376846 9.011513 4.455503 -20.198120 5.191239 -2.269814 60.353477 -1.035744 -4.011172 -47.149506 3.433085 1.616513 
-111.291122 47.637058 56.774097 -2.041320 0.995462 -1.529610 -20.681101 -4.417840 -5.202470 14.950300 1.030210 -3.157750 39.517300 -0.959636 -4.422400 23.290899 2.726700 -1.099610 2.000000 -2.000000 0.000000 -84.525803 -23.577700 -151.628998 95.967400 -0.199621 0.155497 -179.917007 -179.895004 2.433790 -2.000000 2.000000 0.000000 -109.539001 -169.479004 5.705690 -59.131401 0.284995 0.117355 -0.080581 0.070693 -163.063995 -13.736521 4.642071 3.647369 69.602203 0.789964 4.152221 -38.231041 10.775155 6.073164 -19.873953 4.897418 -2.963491 59.794365 -1.058248 -3.977902 -47.128433 3.363601 1.346815 
-113.241417 47.716072 57.771885 -2.119330 0.770957 0.449989 -20.579800 -4.559060 -5.581460 15.311400 1.196140 -3.361730 39.581600 -0.570247 -4.539250 23.341700 2.827140 -1.188260 2.000000 -2.000000 0.000000 -84.778297 -22.141899 -151.533997 95.469299 -0.200888 0.155624 -179.916000 -179.895004 1.965040 -2.000000 2.000000 0.000000 -108.884003 -167.798996 5.574530 -60.166500 0.282863 0.118603 -0.081005 0.071551 -163.406006 -12.846816 4.205797 3.612531 65.845520 1.078867 4.038903 -41.320908 10.325884 6.201376 -19.866734 4.435940 -3.589043 59.637299 -1.076941 -3.974873 -46.836044 3.717068 1.589614 
-115.180382 47.892803 58.785736 -2.197340 0.468405 2.521090 -20.509800 -4.564610 -6.072620 15.584100 1.576080 -3.613620 39.572701 -0.342650 -4.676170 23.352900 2.900670 -1.288890 2.000000 -2.000000 0.000000 -85.441200 -21.077200 -151.389999 94.443901 -0.203499 0.155851 -179.914993 -179.893997 1.730670 -2.000000 2.000000 0.000000 -108.628998 -166.031006 5.814270 -61.328602 0.280444 0.119958 -0.081447 0.072431 -163.757996 -12.065951 3.993428 3.575693 63.695599 1.253333 3.940408 -42.823254 11.578583 7.528011 -19.988918 3.966152 -4.575842 59.794712 -1.064124 -3.990552 -46.590958 2.580391 0.150732 
